<svg id="eJlQkjsuYWe1" 
xmlns="http://www.w3.org/2000/svg" 
xmlns:xlink="http://www.w3.org/1999/xlink" 
viewBox="0 0 300 300" 
shape-rendering="geometricPrecision" 
text-rendering="geometricPrecision">
<rect class="img" width="17.132067" height="175.783932" rx="0" ry="0" transform="translate(.000001 0)" fill="#ff050f" stroke-width="0"/><polygon points="0,-10.442457 9.931367,-3.226897 6.137922,8.448125 -6.137922,8.448125 -9.931367,-3.226897 0,-10.442457" transform="matrix(-.37923 0.54393-.54393-.37923 2.88607 162.978448)" fill="#d2dbed" stroke-width="0"/><polygon points="0,-10.442457 9.931367,-3.226897 6.137922,8.448125 -6.137922,8.448125 -9.931367,-3.226897 0,-10.442457" transform="matrix(-.37923 0.54393-.54393-.37923 9.394953 111.285448)" fill="#d2dbed" stroke-width="0"/><polygon points="0,-10.442457 9.931367,-3.226897 6.137922,8.448125 -6.137922,8.448125 -9.931367,-3.226897 0,-10.442457" transform="matrix(-.37923 0.54393-.54393-.37923 2.88607 126.735875)" fill="#d2dbed" stroke-width="0"/><polygon points="0,-10.442457 9.931367,-3.226897 6.137922,8.448125 -6.137922,8.448125 -9.931367,-3.226897 0,-10.442457" transform="matrix(-.37923 0.54393-.54393-.37923 13.161224 148.592576)" fill="#d2dbed" stroke-width="0"/>
</svg>
